<svg xmlns="http://www.w3.org/2000/svg" xmlns:xlink="http://www.w3.org/1999/xlink" width="1640" zoomAndPan="magnify" viewBox="0 0 1230 693.000001" height="924" preserveAspectRatio="xMidYMid meet" version="1.0"><defs><clipPath id="ebd03226ce"><path d="M 596 513.425781 L 610.617188 513.425781 L 610.617188 528.035156 L 596 528.035156 Z M 596 513.425781 " clip-rule="nonzero"/></clipPath><clipPath id="57a41550e3"><path d="M 589 164.097656 L 607 164.097656 L 607 181 L 589 181 Z M 589 164.097656 " clip-rule="nonzero"/></clipPath><clipPath id="f329994904"><path d="M 411.398438 354 L 423 354 L 423 366 L 411.398438 366 Z M 411.398438 354 " clip-rule="nonzero"/></clipPath><clipPath id="ad2636eb8f"><path d="M 760 320 L 777.621094 320 L 777.621094 337 L 760 337 Z M 760 320 " clip-rule="nonzero"/></clipPath></defs><path fill="#12656d" d="M 438.3125 279.488281 L 427.355469 402.113281 L 417.992188 359.976562 Z M 440.839844 272.757812 L 457.640625 331.753906 L 429.289062 402 Z M 510.003906 237.410156 L 458.871094 329.058594 L 441.546875 268.242188 Z M 486.652344 222.527344 L 510.28125 234.757812 L 445.101562 264.117188 Z M 476.433594 217.238281 L 484.863281 221.601562 L 447.269531 259.234375 Z M 515.570312 190.871094 L 486.285156 220.179688 L 478.015625 215.898438 Z M 511.84375 233.40625 L 488.074219 221.105469 L 521.234375 187.914062 Z M 523.957031 186.097656 L 580.96875 208.335938 L 514.246094 233.128906 Z M 596.382812 173.738281 L 583.386719 207.21875 L 526.683594 185.105469 Z M 598.386719 173.878906 L 670.863281 212.664062 L 585.300781 207.578125 Z M 688.894531 192.503906 L 674.871094 212.632812 L 604.21875 174.824219 Z M 690.632812 193.363281 L 732.808594 236.59375 L 676.636719 213.449219 Z M 714.550781 284.144531 L 677.578125 215.910156 L 735.445312 239.757812 Z M 767.148438 325.679688 L 715.707031 286.195312 L 736.628906 241.746094 Z M 705.5 395.855469 L 715.304688 288.304688 L 767.753906 328.5625 Z M 758.910156 410.316406 L 706.113281 398.015625 L 767.886719 331.242188 Z M 702.234375 483.089844 L 705.207031 399.773438 L 758.058594 412.089844 Z M 700.273438 484.351562 L 611.558594 445.980469 L 703.269531 400.367188 Z M 583.203125 506.867188 L 609.417969 447.5625 L 697.5625 485.6875 Z M 603.1875 519.671875 L 584.09375 508.652344 L 689.378906 489.15625 Z M 527.453125 506.125 L 581.082031 509.128906 L 597.847656 518.804688 Z M 500.933594 443.390625 L 578.484375 507.0625 L 512.664062 503.378906 Z M 431.722656 411.417969 L 498.675781 441.855469 L 510.242188 500.984375 Z M 453.210938 445.734375 L 435.855469 419.042969 L 494.945312 486.445312 Z M 497.429688 438.757812 L 429.066406 407.683594 L 458.515625 334.714844 Z M 550.621094 359.636719 L 460.441406 330.964844 L 512.28125 238.050781 Z M 605.578125 286.210938 L 553.15625 358.746094 L 514.972656 237.671875 Z M 605.328125 283.03125 L 515.730469 235.03125 L 583.007812 210.03125 Z M 608.171875 283.152344 L 585.660156 209.519531 L 672.566406 214.683594 Z M 610.652344 284.433594 L 675.011719 216.007812 L 712.464844 285.128906 Z M 636.738281 356.09375 L 701.972656 398.441406 L 610.679688 443.84375 Z M 609.582031 287.113281 L 711.222656 287.804688 L 636.679688 352.246094 Z M 634.132812 353.113281 L 555.488281 360.101562 L 607.246094 288.484375 Z M 555.046875 362.835938 L 634.429688 355.78125 L 608.492188 443.128906 Z M 607.09375 447.125 L 580.839844 506.515625 L 502.570312 442.253906 Z M 499.6875 438.234375 L 460.648438 333.847656 L 550.566406 362.433594 Z M 552.675781 364.113281 L 606.367188 444.785156 L 501.796875 439.910156 Z M 704.292969 398.574219 Z M 703.5 396.691406 L 637.984375 354.160156 L 713.3125 289.039062 Z M 426.824219 408.5625 L 427.757812 408.355469 L 426.957031 408.878906 L 427.289062 409.390625 L 427.285156 409.402344 L 427.300781 409.410156 L 451.664062 446.871094 L 452.46875 446.347656 L 451.796875 447.035156 L 511.199219 504.980469 L 511.867188 504.292969 L 511.699219 505.238281 L 602.917969 521.667969 L 603.089844 520.722656 L 603.410156 521.628906 L 701.492188 486.898438 L 701.175781 485.996094 L 701.925781 486.585938 L 760.492188 412.089844 L 759.742188 411.496094 L 760.695312 411.605469 L 770.121094 328.554688 L 769.167969 328.445312 L 770.070312 328.113281 L 737.644531 238.921875 L 736.742188 239.253906 L 737.425781 238.582031 L 691.195312 191.195312 L 690.511719 191.863281 L 690.703125 190.925781 L 598.078125 171.582031 L 597.882812 172.523438 L 597.730469 171.578125 L 522.914062 183.773438 L 523.066406 184.722656 L 522.535156 183.921875 L 475.597656 215.203125 L 476.128906 216 L 475.339844 215.453125 L 439.921875 266.449219 L 439.875 266.46875 L 439.886719 266.5 L 439.554688 266.972656 L 440.34375 267.523438 L 439.414062 267.285156 L 416.082031 359.730469 L 417.011719 359.964844 L 416.070312 360.171875 L 426.824219 408.5625 " fill-opacity="1" fill-rule="nonzero"/><path fill="#00aeff" d="M 512.332031 243.371094 C 517.011719 243.617188 521.007812 240.023438 521.25 235.339844 C 521.496094 230.660156 517.898438 226.664062 513.21875 226.417969 C 508.539062 226.171875 504.542969 229.769531 504.300781 234.453125 C 504.054688 239.132812 507.648438 243.125 512.332031 243.371094 " fill-opacity="1" fill-rule="nonzero"/><path fill="#00aeff" d="M 560.601562 361.980469 C 560.832031 357.609375 557.472656 353.882812 553.105469 353.652344 C 548.734375 353.425781 545.003906 356.78125 544.773438 361.152344 C 544.546875 365.523438 547.902344 369.253906 552.273438 369.480469 C 556.644531 369.710938 560.375 366.351562 560.601562 361.980469 " fill-opacity="1" fill-rule="nonzero"/><path fill="#00aeff" d="M 489.277344 440.394531 C 488.976562 446.097656 493.359375 450.960938 499.058594 451.261719 C 504.757812 451.558594 509.621094 447.179688 509.921875 441.476562 C 510.21875 435.777344 505.839844 430.914062 500.140625 430.613281 C 494.4375 430.3125 489.578125 434.695312 489.277344 440.394531 " fill-opacity="1" fill-rule="nonzero"/><path fill="#00aeff" d="M 591.691406 208.882812 C 591.917969 204.585938 588.617188 200.917969 584.320312 200.695312 C 580.023438 200.46875 576.359375 203.769531 576.132812 208.066406 C 575.90625 212.363281 579.207031 216.03125 583.503906 216.253906 C 587.800781 216.480469 591.464844 213.179688 591.691406 208.882812 " fill-opacity="1" fill-rule="nonzero"/><path fill="#00aeff" d="M 468.152344 332.679688 C 468.421875 327.539062 464.472656 323.15625 459.335938 322.882812 C 454.195312 322.613281 449.8125 326.5625 449.542969 331.703125 C 449.273438 336.84375 453.21875 341.226562 458.359375 341.496094 C 463.496094 341.765625 467.882812 337.820312 468.152344 332.679688 " fill-opacity="1" fill-rule="nonzero"/><path fill="#00aeff" d="M 574.179688 507.6875 C 573.972656 511.644531 577.011719 515.019531 580.96875 515.230469 C 584.921875 515.433594 588.296875 512.398438 588.507812 508.441406 C 588.714844 504.484375 585.675781 501.109375 581.71875 500.902344 C 577.761719 500.695312 574.386719 503.730469 574.179688 507.6875 " fill-opacity="1" fill-rule="nonzero"/><path fill="#00aeff" d="M 695.980469 398.113281 C 695.742188 402.71875 699.277344 406.644531 703.878906 406.886719 C 708.484375 407.128906 712.414062 403.59375 712.652344 398.988281 C 712.894531 394.382812 709.359375 390.457031 704.753906 390.214844 C 700.152344 389.972656 696.226562 393.511719 695.980469 398.113281 " fill-opacity="1" fill-rule="nonzero"/><path fill="#00aeff" d="M 608.234375 456.097656 C 613.933594 456.394531 618.796875 452.015625 619.097656 446.316406 C 619.394531 440.617188 615.015625 435.753906 609.316406 435.453125 C 603.617188 435.15625 598.753906 439.535156 598.457031 445.234375 C 598.15625 450.933594 602.535156 455.796875 608.234375 456.097656 " fill-opacity="1" fill-rule="nonzero"/><path fill="#00aeff" d="M 682.882812 214.027344 C 683.097656 209.839844 679.882812 206.265625 675.691406 206.046875 C 671.503906 205.824219 667.933594 209.042969 667.710938 213.230469 C 667.492188 217.421875 670.710938 220.996094 674.898438 221.214844 C 679.089844 221.433594 682.660156 218.214844 682.882812 214.027344 " fill-opacity="1" fill-rule="nonzero"/><path fill="#00aeff" d="M 723.40625 286.984375 C 723.667969 282.019531 719.855469 277.78125 714.890625 277.523438 C 709.925781 277.261719 705.691406 281.078125 705.429688 286.039062 C 705.171875 291.003906 708.984375 295.238281 713.945312 295.5 C 718.910156 295.761719 723.148438 291.945312 723.40625 286.984375 " fill-opacity="1" fill-rule="nonzero"/><path fill="#00aeff" d="M 607.324219 292.667969 C 611.269531 292.875 614.632812 289.84375 614.839844 285.898438 C 615.046875 281.957031 612.015625 278.589844 608.074219 278.382812 C 604.128906 278.179688 600.765625 281.207031 600.558594 285.152344 C 600.351562 289.097656 603.378906 292.460938 607.324219 292.667969 " fill-opacity="1" fill-rule="nonzero"/><path fill="#00aeff" d="M 643.738281 354.679688 C 643.957031 350.453125 640.714844 346.851562 636.488281 346.625 C 632.261719 346.40625 628.660156 349.652344 628.4375 353.875 C 628.214844 358.101562 631.460938 361.707031 635.683594 361.929688 C 639.914062 362.148438 643.515625 358.90625 643.738281 354.679688 " fill-opacity="1" fill-rule="nonzero"/><path fill="#64d5dd" d="M 441.136719 268.734375 L 485.515625 281.046875 L 431.140625 336.632812 Z M 520.304688 188.847656 L 486.5625 279.34375 L 442.183594 267.035156 Z M 476.8125 216.695312 L 515.570312 190.871094 L 447.269531 259.234375 Z M 523.574219 186.652344 L 567.777344 233.316406 L 489.527344 277.980469 Z M 640.628906 193.777344 L 569.640625 232.492188 L 525.453125 185.847656 Z M 597.753906 173.511719 L 638.632812 191.714844 L 531.402344 184.335938 Z M 682.230469 191.117188 L 644.164062 192.078125 L 606.464844 175.292969 Z M 732.105469 235.871094 L 647.851562 193.90625 L 690.117188 192.835938 Z M 660.910156 262.300781 L 645.578125 194.914062 L 733.953125 238.933594 Z M 738.730469 310.351562 L 662.820312 264.105469 L 735.84375 240.746094 Z M 767.402344 326.378906 L 740.707031 311.753906 L 737.957031 245.402344 Z M 739.882812 410.027344 L 740.714844 313.945312 L 768 328.894531 Z M 758.867188 410.699219 L 740.335938 414.582031 L 767.242188 336.941406 Z M 707.253906 476.707031 L 739.417969 416.890625 L 739.484375 416.847656 L 739.457031 416.808594 L 739.507812 416.71875 L 757.359375 412.976562 Z M 700.769531 484.714844 L 661.890625 464.988281 L 736.152344 418.914062 Z M 606.839844 518.378906 L 659.917969 466.140625 L 698.746094 485.839844 Z M 602.992188 519.472656 L 546.566406 479.140625 L 657.070312 466.246094 Z M 514.105469 503.71875 L 544.023438 479.675781 L 599.0625 519.023438 Z M 456.242188 448.6875 L 542.042969 478.808594 L 511.929688 503.015625 Z M 492.398438 382.910156 L 541.738281 476.667969 L 454.085938 445.898438 Z M 491.207031 378.367188 L 431.398438 339.113281 L 486.3125 282.976562 Z M 564.84375 314.90625 L 493.488281 377.890625 L 488.59375 282.542969 Z M 566.039062 312.496094 L 490.136719 280.28125 L 568.050781 235.8125 Z M 580.550781 403.445312 L 495.054688 380.089844 L 566.394531 317.113281 Z M 572.078125 233.347656 L 643.144531 194.589844 L 658.492188 262.042969 Z M 656.945312 263.953125 L 568.734375 312.203125 L 570.75 235.332031 Z M 669.972656 356.609375 L 570.40625 314.347656 L 658.972656 265.910156 Z M 672.648438 356.402344 L 661.703125 266.125 L 737.46875 312.28125 Z M 673.796875 358.867188 L 738.792969 314.625 L 737.9375 413.3125 Z M 672.636719 361.410156 L 736.753906 415.832031 L 661.351562 462.613281 Z M 584.476562 405.402344 L 669.972656 361.097656 L 658.644531 462.671875 Z M 569.046875 316.691406 L 668.429688 358.875 L 583.203125 403.039062 Z M 543.980469 475.992188 L 494.722656 382.382812 L 580.5 405.816406 Z M 582.5625 406.835938 L 657.015625 464.324219 L 545.902344 477.285156 Z M 431.242188 341.761719 L 490.910156 380.925781 L 452.84375 443.511719 Z M 418.082031 360.054688 L 429.320312 341.945312 L 449.324219 436.167969 Z M 436.636719 286.132812 L 428.839844 339.078125 L 419.449219 354.214844 Z M 416.082031 359.730469 L 417.011719 359.964844 L 416.121094 360.328125 L 451.582031 446.710938 L 452.46875 446.347656 L 451.796875 447.035156 L 511.199219 504.980469 L 511.867188 504.292969 L 511.699219 505.238281 L 602.917969 521.667969 L 603.089844 520.722656 L 603.410156 521.628906 L 701.492188 486.898438 L 701.175781 485.996094 L 701.925781 486.585938 L 760.492188 412.089844 L 759.742188 411.496094 L 760.695312 411.605469 L 770.121094 328.554688 L 769.167969 328.445312 L 770.070312 328.113281 L 737.644531 238.921875 L 736.742188 239.253906 L 737.425781 238.582031 L 691.195312 191.195312 L 690.511719 191.863281 L 690.703125 190.925781 L 598.078125 171.582031 L 597.882812 172.523438 L 597.730469 171.578125 L 522.914062 183.773438 L 523.066406 184.722656 L 522.535156 183.921875 L 475.597656 215.203125 L 476.128906 216 L 475.339844 215.453125 L 439.554688 266.972656 L 440.34375 267.523438 L 439.414062 267.285156 L 416.082031 359.730469 " fill-opacity="1" fill-rule="nonzero"/><path fill="#00aeff" d="M 570.566406 404.910156 C 570.566406 411.421875 575.839844 416.699219 582.347656 416.699219 C 588.859375 416.699219 594.132812 411.421875 594.132812 404.910156 C 594.132812 398.402344 588.859375 393.125 582.347656 393.125 C 575.839844 393.125 570.566406 398.402344 570.566406 404.910156 " fill-opacity="1" fill-rule="nonzero"/><path fill="#00aeff" d="M 511.777344 500.105469 C 509.449219 500.105469 507.558594 501.996094 507.558594 504.324219 C 507.558594 506.65625 509.449219 508.542969 511.777344 508.542969 C 514.105469 508.542969 515.996094 506.65625 515.996094 504.324219 C 515.996094 501.996094 514.105469 500.105469 511.777344 500.105469 " fill-opacity="1" fill-rule="nonzero"/><path fill="#00aeff" d="M 549.664062 478.527344 C 549.664062 475.449219 547.171875 472.953125 544.089844 472.953125 C 541.011719 472.953125 538.515625 475.449219 538.515625 478.527344 C 538.515625 481.605469 541.011719 484.105469 544.089844 484.105469 C 547.171875 484.105469 549.664062 481.605469 549.664062 478.527344 " fill-opacity="1" fill-rule="nonzero"/><g clip-path="url(#ebd03226ce)"><path fill="#00aeff" d="M 596.085938 520.867188 C 596.085938 524.828125 599.292969 528.035156 603.253906 528.035156 C 607.210938 528.035156 610.421875 524.828125 610.421875 520.867188 C 610.421875 516.910156 607.210938 513.699219 603.253906 513.699219 C 599.292969 513.699219 596.085938 516.910156 596.085938 520.867188 " fill-opacity="1" fill-rule="nonzero"/></g><g clip-path="url(#57a41550e3)"><path fill="#00aeff" d="M 597.910156 164.097656 C 593.246094 164.097656 589.46875 167.871094 589.46875 172.535156 C 589.46875 177.195312 593.246094 180.972656 597.910156 180.972656 C 602.570312 180.972656 606.34375 177.195312 606.34375 172.535156 C 606.34375 167.871094 602.570312 164.097656 597.910156 164.097656 " fill-opacity="1" fill-rule="nonzero"/></g><path fill="#00aeff" d="M 476.105469 210.265625 C 472.960938 210.265625 470.410156 212.816406 470.410156 215.964844 C 470.410156 219.109375 472.960938 221.660156 476.105469 221.660156 C 479.253906 221.660156 481.800781 219.109375 481.800781 215.964844 C 481.800781 212.816406 479.253906 210.265625 476.105469 210.265625 " fill-opacity="1" fill-rule="nonzero"/><path fill="#00aeff" d="M 523.1875 192.132812 C 527.265625 192.132812 530.570312 188.828125 530.570312 184.746094 C 530.570312 180.671875 527.265625 177.363281 523.1875 177.363281 C 519.109375 177.363281 515.804688 180.671875 515.804688 184.746094 C 515.804688 188.828125 519.109375 192.132812 523.1875 192.132812 " fill-opacity="1" fill-rule="nonzero"/><path fill="#00aeff" d="M 482.265625 380.617188 C 482.265625 386.324219 486.894531 390.953125 492.601562 390.953125 C 498.304688 390.953125 502.933594 386.324219 502.933594 380.617188 C 502.933594 374.910156 498.304688 370.28125 492.601562 370.28125 C 486.894531 370.28125 482.265625 374.910156 482.265625 380.617188 " fill-opacity="1" fill-rule="nonzero"/><g clip-path="url(#f329994904)"><path fill="#00aeff" d="M 417.136719 354.398438 C 413.988281 354.398438 411.441406 356.953125 411.441406 360.09375 C 411.441406 363.242188 413.988281 365.792969 417.136719 365.792969 C 420.28125 365.792969 422.832031 363.242188 422.832031 360.09375 C 422.832031 356.953125 420.28125 354.398438 417.136719 354.398438 " fill-opacity="1" fill-rule="nonzero"/></g><path fill="#00aeff" d="M 422.621094 339.382812 C 422.621094 343.34375 425.832031 346.554688 429.792969 346.554688 C 433.753906 346.554688 436.964844 343.34375 436.964844 339.382812 C 436.964844 335.421875 433.753906 332.207031 429.792969 332.207031 C 425.832031 332.207031 422.621094 335.421875 422.621094 339.382812 " fill-opacity="1" fill-rule="nonzero"/><path fill="#00aeff" d="M 440.4375 273.347656 C 443.582031 273.347656 446.132812 270.796875 446.132812 267.652344 C 446.132812 264.503906 443.582031 261.957031 440.4375 261.957031 C 437.289062 261.957031 434.742188 264.503906 434.742188 267.652344 C 434.742188 270.796875 437.289062 273.347656 440.4375 273.347656 " fill-opacity="1" fill-rule="nonzero"/><path fill="#00aeff" d="M 487.515625 270.261719 C 481.808594 270.261719 477.183594 274.890625 477.183594 280.597656 C 477.183594 286.304688 481.808594 290.933594 487.515625 290.933594 C 493.226562 290.933594 497.855469 286.304688 497.855469 280.597656 C 497.855469 274.890625 493.226562 270.261719 487.515625 270.261719 " fill-opacity="1" fill-rule="nonzero"/><path fill="#00aeff" d="M 459.25 446.59375 C 459.25 442.980469 456.320312 440.054688 452.710938 440.054688 C 449.097656 440.054688 446.171875 442.980469 446.171875 446.59375 C 446.171875 450.207031 449.097656 453.132812 452.710938 453.132812 C 456.320312 453.132812 459.25 450.207031 459.25 446.59375 " fill-opacity="1" fill-rule="nonzero"/><path fill="#00aeff" d="M 739.863281 306.210938 C 736.546875 306.210938 733.859375 308.898438 733.859375 312.210938 C 733.859375 315.523438 736.546875 318.210938 739.863281 318.210938 C 743.175781 318.210938 745.859375 315.523438 745.859375 312.210938 C 745.859375 308.898438 743.175781 306.210938 739.863281 306.210938 " fill-opacity="1" fill-rule="nonzero"/><path fill="#00aeff" d="M 731.292969 415.765625 C 731.292969 419.957031 734.691406 423.359375 738.886719 423.359375 C 743.078125 423.359375 746.480469 419.957031 746.480469 415.765625 C 746.480469 411.566406 743.078125 408.167969 738.886719 408.167969 C 734.691406 408.167969 731.292969 411.566406 731.292969 415.765625 " fill-opacity="1" fill-rule="nonzero"/><path fill="#00aeff" d="M 736.539062 232.324219 C 732.808594 232.324219 729.785156 235.34375 729.785156 239.074219 C 729.785156 242.804688 732.808594 245.828125 736.539062 245.828125 C 740.265625 245.828125 743.289062 242.804688 743.289062 239.074219 C 743.289062 235.34375 740.265625 232.324219 736.539062 232.324219 " fill-opacity="1" fill-rule="nonzero"/><path fill="#00aeff" d="M 701.105469 491.5625 C 704.25 491.5625 706.804688 489.011719 706.804688 485.863281 C 706.804688 482.71875 704.25 480.167969 701.105469 480.167969 C 697.960938 480.167969 695.410156 482.71875 695.410156 485.863281 C 695.410156 489.011719 697.960938 491.5625 701.105469 491.5625 " fill-opacity="1" fill-rule="nonzero"/><g clip-path="url(#ad2636eb8f)"><path fill="#00aeff" d="M 777.578125 328.449219 C 777.578125 323.789062 773.796875 320.011719 769.136719 320.011719 C 764.476562 320.011719 760.699219 323.789062 760.699219 328.449219 C 760.699219 333.109375 764.476562 336.890625 769.136719 336.890625 C 773.796875 336.890625 777.578125 333.109375 777.578125 328.449219 " fill-opacity="1" fill-rule="nonzero"/></g><path fill="#00aeff" d="M 753.996094 411.59375 C 753.996094 414.738281 756.546875 417.289062 759.691406 417.289062 C 762.839844 417.289062 765.386719 414.738281 765.386719 411.59375 C 765.386719 408.445312 762.839844 405.894531 759.691406 405.894531 C 756.546875 405.894531 753.996094 408.445312 753.996094 411.59375 " fill-opacity="1" fill-rule="nonzero"/><path fill="#00aeff" d="M 690.253906 185.941406 C 687.109375 185.941406 684.5625 188.492188 684.5625 191.640625 C 684.5625 194.78125 687.109375 197.335938 690.253906 197.335938 C 693.402344 197.335938 695.949219 194.78125 695.949219 191.640625 C 695.949219 188.492188 693.402344 185.941406 690.253906 185.941406 " fill-opacity="1" fill-rule="nonzero"/><path fill="#00aeff" d="M 579.710938 314.386719 C 579.710938 307.652344 574.253906 302.191406 567.519531 302.191406 C 560.785156 302.191406 555.328125 307.652344 555.328125 314.386719 C 555.328125 321.117188 560.785156 326.578125 567.519531 326.578125 C 574.253906 326.578125 579.710938 321.117188 579.710938 314.386719 " fill-opacity="1" fill-rule="nonzero"/><path fill="#00aeff" d="M 682.621094 358.753906 C 682.621094 352.675781 677.695312 347.75 671.621094 347.75 C 665.542969 347.75 660.617188 352.675781 660.617188 358.753906 C 660.617188 364.828125 665.542969 369.753906 671.621094 369.753906 C 677.695312 369.753906 682.621094 364.828125 682.621094 358.753906 " fill-opacity="1" fill-rule="nonzero"/><path fill="#00aeff" d="M 569.40625 219.367188 C 561.488281 219.367188 555.070312 225.789062 555.070312 233.703125 C 555.070312 241.621094 561.488281 248.039062 569.40625 248.039062 C 577.324219 248.039062 583.738281 241.621094 583.738281 233.703125 C 583.738281 225.789062 577.324219 219.367188 569.40625 219.367188 " fill-opacity="1" fill-rule="nonzero"/><path fill="#00aeff" d="M 643.972656 187.683594 C 640.945312 187.683594 638.492188 190.144531 638.492188 193.171875 C 638.492188 196.203125 640.945312 198.65625 643.972656 198.65625 C 647.003906 198.65625 649.457031 196.203125 649.457031 193.171875 C 649.457031 190.144531 647.003906 187.683594 643.972656 187.683594 " fill-opacity="1" fill-rule="nonzero"/><path fill="#00aeff" d="M 650.777344 464.910156 C 650.777344 469.882812 654.808594 473.910156 659.78125 473.910156 C 664.75 473.910156 668.78125 469.882812 668.78125 464.910156 C 668.78125 459.941406 664.75 455.910156 659.78125 455.910156 C 654.808594 455.910156 650.777344 459.941406 650.777344 464.910156 " fill-opacity="1" fill-rule="nonzero"/><path fill="#00aeff" d="M 660.210938 252.566406 C 654.105469 252.566406 649.152344 257.515625 649.152344 263.625 C 649.152344 269.730469 654.105469 274.683594 660.210938 274.683594 C 666.316406 274.683594 671.269531 269.730469 671.269531 263.625 C 671.269531 257.515625 666.316406 252.566406 660.210938 252.566406 " fill-opacity="1" fill-rule="nonzero"/></svg>